<svg xmlns="http://www.w3.org/2000/svg" width="460" height="920" viewBox="0 0 460 920">
  <defs>
    <linearGradient id="bg" x1="0" y1="0" x2="1" y2="1">
      <stop offset="0" stop-color="#e7f6f2"/>
      <stop offset="0.52" stop-color="#ffffff"/>
      <stop offset="1" stop-color="#d8ecff"/>
    </linearGradient>
    <linearGradient id="button" x1="0" y1="0" x2="1" y2="1">
      <stop offset="0" stop-color="#00a77d"/>
      <stop offset="1" stop-color="#227dae"/>
    </linearGradient>
    <filter id="shadow" x="-20%" y="-20%" width="140%" height="150%">
      <feDropShadow dx="0" dy="18" stdDeviation="20" flood-color="#355b65" flood-opacity="0.18"/>
    </filter>
    <filter id="buttonShadow" x="-40%" y="-40%" width="180%" height="180%">
      <feDropShadow dx="0" dy="22" stdDeviation="22" flood-color="#008e6e" flood-opacity="0.34"/>
    </filter>
    <filter id="soft" x="-30%" y="-30%" width="160%" height="160%">
      <feGaussianBlur stdDeviation="18"/>
    </filter>
  </defs>

  <rect width="460" height="920" rx="44" fill="#101820"/>
  <rect x="14" y="14" width="432" height="892" rx="38" fill="url(#bg)"/>
  <circle cx="382" cy="90" r="78" fill="#8fd5ff" opacity="0.34" filter="url(#soft)"/>
  <circle cx="80" cy="680" r="100" fill="#13a67f" opacity="0.12" filter="url(#soft)"/>

  <text x="44" y="55" fill="#061418" font-family="Arial, sans-serif" font-size="14" font-weight="700">9:41</text>
  <rect x="364" y="43" width="38" height="13" rx="6.5" fill="none" stroke="#061418" stroke-opacity="0.65"/>
  <rect x="405" y="47" width="3" height="5" rx="1.5" fill="#061418" fill-opacity="0.65"/>
  <rect x="367" y="46" width="25" height="7" rx="3.5" fill="#061418" fill-opacity="0.65"/>

  <g transform="translate(36 86)">
    <rect width="54" height="54" rx="15" fill="#007b5f"/>
    <text x="27" y="34" text-anchor="middle" fill="#fff" font-family="Arial, sans-serif" font-size="18" font-weight="900">IV</text>
  </g>
  <text x="104" y="112" fill="#061418" font-family="Arial, sans-serif" font-size="27" font-weight="900">IronVPN</text>
  <text x="105" y="134" fill="#007b5f" font-family="Arial, sans-serif" font-size="13" font-weight="800">Защищенный трафик</text>
  <rect x="358" y="96" width="58" height="32" rx="16" fill="#819096" fill-opacity="0.14" stroke="#819096" stroke-opacity="0.22"/>
  <text x="387" y="117" text-anchor="middle" fill="#819096" font-family="Arial, sans-serif" font-size="13" font-weight="900">OFF</text>

  <g filter="url(#buttonShadow)">
    <circle cx="230" cy="274" r="92" fill="url(#button)"/>
  </g>
  <circle cx="230" cy="274" r="86" fill="none" stroke="#ffffff" stroke-opacity="0.72" stroke-width="8"/>
  <path d="M230 223v46" stroke="#ffffff" stroke-width="12" stroke-linecap="round"/>
  <path d="M202 255a42 42 0 1 0 56 0" fill="none" stroke="#ffffff" stroke-width="12" stroke-linecap="round"/>
  <text x="230" y="335" text-anchor="middle" fill="#ffffff" font-family="Arial, sans-serif" font-size="16" font-weight="900">START</text>
  <text x="230" y="397" text-anchor="middle" fill="#061418" font-family="Arial, sans-serif" font-size="17" font-weight="900">Нажмите для подключения</text>

  <g filter="url(#shadow)">
    <rect x="34" y="432" width="392" height="222" rx="26" fill="#ffffff" fill-opacity="0.74" stroke="#ffffff" stroke-opacity="0.88"/>
  </g>
  <text x="58" y="482" fill="#061418" font-family="Arial, sans-serif" font-size="29" font-weight="900">Подписка активна</text>
  <text x="58" y="526" fill="#52636a" font-family="Arial, sans-serif" font-size="15" font-weight="800">Действует до</text>
  <text x="58" y="572" fill="#007b5f" font-family="Arial, sans-serif" font-size="35" font-weight="900">27.06.2026</text>
  <text x="58" y="614" fill="#66777d" font-family="Arial, sans-serif" font-size="14" font-weight="800">Тариф</text>
  <text x="154" y="614" fill="#061418" font-family="Arial, sans-serif" font-size="14" font-weight="900">1 месяц</text>
  <text x="58" y="644" fill="#66777d" font-family="Arial, sans-serif" font-size="14" font-weight="800">Устройство</text>
  <text x="154" y="644" fill="#061418" font-family="Arial, sans-serif" font-size="14" font-weight="900">iPhone</text>
  <circle cx="383" cy="472" r="18" fill="#eef7f5" stroke="#d7e2e1"/>
  <path d="M376 472h14M383 465v14" stroke="#007b5f" stroke-width="3" stroke-linecap="round"/>

  <g filter="url(#shadow)">
    <rect x="34" y="680" width="392" height="132" rx="26" fill="#ffffff" fill-opacity="0.74" stroke="#ffffff" stroke-opacity="0.88"/>
  </g>
  <text x="58" y="732" fill="#061418" font-family="Arial, sans-serif" font-size="21" font-weight="900">РФ-сервисы напрямую</text>
  <text x="58" y="764" fill="#66777d" font-family="Arial, sans-serif" font-size="14">Ozon, WB, Госуслуги, банки, Steam, FACEIT</text>
  <rect x="348" y="723" width="54" height="30" rx="15" fill="#008e6e"/>
  <circle cx="387" cy="738" r="12" fill="#ffffff"/>

  <g filter="url(#shadow)">
    <rect x="34" y="836" width="392" height="50" rx="20" fill="#ffffff" fill-opacity="0.62" stroke="#ffffff" stroke-opacity="0.84"/>
  </g>
  <path d="M62 862l8 8 18-24" fill="none" stroke="#008e6e" stroke-width="5" stroke-linecap="round" stroke-linejoin="round"/>
  <text x="106" y="865" fill="#061418" font-family="Arial, sans-serif" font-size="15" font-weight="900">Конфиг получен автоматически</text>
</svg>
